<?xml version="1.0" encoding="UTF-8" standalone="no"?>
<!DOCTYPE svg PUBLIC "-//W3C//DTD SVG 1.1//EN"
 "http://www.w3.org/Graphics/SVG/1.1/DTD/svg11.dtd">
<!-- Generated by graphviz version 2.26.3 (20100126.1600)
 -->
<!-- Title: G Pages: 1 -->
<svg width="856pt" height="468pt"
 viewBox="0.00 0.00 856.00 468.00" xmlns="http://www.w3.org/2000/svg" xmlns:xlink="http://www.w3.org/1999/xlink">
<g id="graph1" class="graph" transform="scale(1 1) rotate(0) translate(4 464)">
<title>G</title>
<polygon fill="white" stroke="white" points="-4,5 -4,-464 853,-464 853,5 -4,5"/>
<g id="graph2" class="cluster"><title>cluster_Global</title>
<polyline fill="none" stroke="gray" points="652,-38 828,-38 "/>
<path fill="none" stroke="gray" d="M828,-38C834,-38 840,-44 840,-50"/>
<polyline fill="none" stroke="gray" points="840,-50 840,-440 "/>
<path fill="none" stroke="gray" d="M840,-440C840,-446 834,-452 828,-452"/>
<polyline fill="none" stroke="gray" points="828,-452 652,-452 "/>
<path fill="none" stroke="gray" d="M652,-452C646,-452 640,-446 640,-440"/>
<polyline fill="none" stroke="gray" points="640,-440 640,-50 "/>
<path fill="none" stroke="gray" d="M640,-50C640,-44 646,-38 652,-38"/>
<text text-anchor="middle" x="740" y="-438.1" font-family="Times Roman,serif" font-size="11.00" fill="gray">Global</text>
</g>
<g id="graph3" class="cluster"><title>cluster_\WebinoCanonicalRedirect</title>
<polyline fill="none" stroke="gray" points="660,-46 820,-46 "/>
<path fill="none" stroke="gray" d="M820,-46C826,-46 832,-52 832,-58"/>
<polyline fill="none" stroke="gray" points="832,-58 832,-410 "/>
<path fill="none" stroke="gray" d="M832,-410C832,-416 826,-422 820,-422"/>
<polyline fill="none" stroke="gray" points="820,-422 660,-422 "/>
<path fill="none" stroke="gray" d="M660,-422C654,-422 648,-416 648,-410"/>
<polyline fill="none" stroke="gray" points="648,-410 648,-58 "/>
<path fill="none" stroke="gray" d="M648,-58C648,-52 654,-46 660,-46"/>
<text text-anchor="middle" x="740" y="-408.1" font-family="Times Roman,serif" font-size="11.00" fill="gray">WebinoCanonicalRedirect</text>
</g>
<g id="graph4" class="cluster"><title>cluster_\WebinoCanonicalRedirect\Uri</title>
<polyline fill="none" stroke="gray" points="692,-318 788,-318 "/>
<path fill="none" stroke="gray" d="M788,-318C794,-318 800,-324 800,-330"/>
<polyline fill="none" stroke="gray" points="800,-330 800,-380 "/>
<path fill="none" stroke="gray" d="M800,-380C800,-386 794,-392 788,-392"/>
<polyline fill="none" stroke="gray" points="788,-392 692,-392 "/>
<path fill="none" stroke="gray" d="M692,-392C686,-392 680,-386 680,-380"/>
<polyline fill="none" stroke="gray" points="680,-380 680,-330 "/>
<path fill="none" stroke="gray" d="M680,-330C680,-324 686,-318 692,-318"/>
<text text-anchor="middle" x="740" y="-378.1" font-family="Times Roman,serif" font-size="11.00" fill="gray">Uri</text>
</g>
<g id="graph5" class="cluster"><title>cluster_\WebinoCanonicalRedirect\Factory</title>
<polyline fill="none" stroke="gray" points="668,-182 812,-182 "/>
<path fill="none" stroke="gray" d="M812,-182C818,-182 824,-188 824,-194"/>
<polyline fill="none" stroke="gray" points="824,-194 824,-298 "/>
<path fill="none" stroke="gray" d="M824,-298C824,-304 818,-310 812,-310"/>
<polyline fill="none" stroke="gray" points="812,-310 668,-310 "/>
<path fill="none" stroke="gray" d="M668,-310C662,-310 656,-304 656,-298"/>
<polyline fill="none" stroke="gray" points="656,-298 656,-194 "/>
<path fill="none" stroke="gray" d="M656,-194C656,-188 662,-182 668,-182"/>
<text text-anchor="middle" x="740" y="-296.1" font-family="Times Roman,serif" font-size="11.00" fill="gray">Factory</text>
</g>
<g id="graph6" class="cluster"><title>cluster_\WebinoCanonicalRedirect\Options</title>
<polyline fill="none" stroke="gray" points="692,-100 788,-100 "/>
<path fill="none" stroke="gray" d="M788,-100C794,-100 800,-106 800,-112"/>
<polyline fill="none" stroke="gray" points="800,-112 800,-162 "/>
<path fill="none" stroke="gray" d="M800,-162C800,-168 794,-174 788,-174"/>
<polyline fill="none" stroke="gray" points="788,-174 692,-174 "/>
<path fill="none" stroke="gray" d="M692,-174C686,-174 680,-168 680,-162"/>
<polyline fill="none" stroke="gray" points="680,-162 680,-112 "/>
<path fill="none" stroke="gray" d="M680,-112C680,-106 686,-100 692,-100"/>
<text text-anchor="middle" x="740" y="-160.1" font-family="Times Roman,serif" font-size="11.00" fill="gray">Options</text>
</g>
<!-- \\WebinoCanonicalRedirect\\Uri\\Canonicalizer -->
<g id="node4" class="node"><title>\\WebinoCanonicalRedirect\\Uri\\Canonicalizer</title>
<polygon fill="none" stroke="black" points="792,-362 688,-362 688,-326 792,-326 792,-362"/>
<text text-anchor="middle" x="740" y="-341.1" font-family="Courier,monospace" font-size="11.00">Canonicalizer</text>
</g>
<!-- \\WebinoCanonicalRedirect\\Factory\\CanonicalizerFactory -->
<g id="node6" class="node"><title>\\WebinoCanonicalRedirect\\Factory\\CanonicalizerFactory</title>
<polygon fill="none" stroke="black" points="816,-280 664,-280 664,-244 816,-244 816,-280"/>
<text text-anchor="middle" x="740" y="-259.1" font-family="Courier,monospace" font-size="11.00">CanonicalizerFactory</text>
</g>
<!-- \\Zend\\ServiceManager\\FactoryInterface -->
<g id="node12" class="node"><title>\\Zend\\ServiceManager\\FactoryInterface</title>
<ellipse fill="none" stroke="black" cx="296" cy="-235" rx="202.94" ry="18.3848"/>
<text text-anchor="middle" x="296" y="-231.4" font-family="Times Roman,serif" font-size="14.00" fill="gray">\Zend\ServiceManager\FactoryInterface</text>
</g>
<!-- \\WebinoCanonicalRedirect\\Factory\\CanonicalizerFactory&#45;&gt;\\Zend\\ServiceManager\\FactoryInterface -->
<g id="edge7" class="edge"><title>\\WebinoCanonicalRedirect\\Factory\\CanonicalizerFactory&#45;&gt;\\Zend\\ServiceManager\\FactoryInterface</title>
<path fill="none" stroke="black" stroke-dasharray="1,5" d="M663.926,-257.374C611.598,-254.192 539.851,-249.829 473.604,-245.8"/>
<polygon fill="none" stroke="black" points="473.642,-242.296 463.448,-245.183 473.217,-249.283 473.642,-242.296"/>
</g>
<!-- \\WebinoCanonicalRedirect\\Factory\\ModuleOptionsFactory -->
<g id="node7" class="node"><title>\\WebinoCanonicalRedirect\\Factory\\ModuleOptionsFactory</title>
<polygon fill="none" stroke="black" points="816,-226 664,-226 664,-190 816,-190 816,-226"/>
<text text-anchor="middle" x="740" y="-205.1" font-family="Courier,monospace" font-size="11.00">ModuleOptionsFactory</text>
</g>
<!-- \\WebinoCanonicalRedirect\\Factory\\ModuleOptionsFactory&#45;&gt;\\Zend\\ServiceManager\\FactoryInterface -->
<g id="edge9" class="edge"><title>\\WebinoCanonicalRedirect\\Factory\\ModuleOptionsFactory&#45;&gt;\\Zend\\ServiceManager\\FactoryInterface</title>
<path fill="none" stroke="black" stroke-dasharray="1,5" d="M663.926,-212.626C611.598,-215.808 539.851,-220.171 473.604,-224.2"/>
<polygon fill="none" stroke="black" points="473.217,-220.717 463.448,-224.817 473.642,-227.704 473.217,-220.717"/>
</g>
<!-- \\WebinoCanonicalRedirect\\Options\\ModuleOptions -->
<g id="node9" class="node"><title>\\WebinoCanonicalRedirect\\Options\\ModuleOptions</title>
<polygon fill="none" stroke="black" points="792,-144 688,-144 688,-108 792,-108 792,-144"/>
<text text-anchor="middle" x="740" y="-123.1" font-family="Courier,monospace" font-size="11.00">ModuleOptions</text>
</g>
<!-- \\Zend\\Stdlib\\AbstractOptions -->
<g id="node19" class="node"><title>\\Zend\\Stdlib\\AbstractOptions</title>
<ellipse fill="none" stroke="black" cx="296" cy="-126" rx="152.028" ry="18.3848"/>
<text text-anchor="middle" x="296" y="-122.4" font-family="Times Roman,serif" font-size="14.00" fill="gray">\Zend\Stdlib\AbstractOptions</text>
</g>
<!-- \\WebinoCanonicalRedirect\\Options\\ModuleOptions&#45;&gt;\\Zend\\Stdlib\\AbstractOptions -->
<g id="edge15" class="edge"><title>\\WebinoCanonicalRedirect\\Options\\ModuleOptions&#45;&gt;\\Zend\\Stdlib\\AbstractOptions</title>
<path fill="none" stroke="black" d="M687.762,-126C631.595,-126 539.466,-126 458.659,-126"/>
<polygon fill="none" stroke="black" points="458.356,-122.5 448.356,-126 458.356,-129.5 458.356,-122.5"/>
</g>
<!-- \\WebinoCanonicalRedirect\\Module -->
<g id="node10" class="node"><title>\\WebinoCanonicalRedirect\\Module</title>
<polygon fill="none" stroke="black" points="768,-90 712,-90 712,-54 768,-54 768,-90"/>
<text text-anchor="middle" x="740" y="-69.1" font-family="Courier,monospace" font-size="11.00">Module</text>
</g>
<!-- \\Zend\\ModuleManager\\Feature\\BootstrapListenerInterface -->
<g id="node15" class="node"><title>\\Zend\\ModuleManager\\Feature\\BootstrapListenerInterface</title>
<ellipse fill="none" stroke="black" cx="296" cy="-72" rx="295.071" ry="18.3848"/>
<text text-anchor="middle" x="296" y="-68.4" font-family="Times Roman,serif" font-size="14.00" fill="gray">\Zend\ModuleManager\Feature\BootstrapListenerInterface</text>
</g>
<!-- \\WebinoCanonicalRedirect\\Module&#45;&gt;\\Zend\\ModuleManager\\Feature\\BootstrapListenerInterface -->
<g id="edge11" class="edge"><title>\\WebinoCanonicalRedirect\\Module&#45;&gt;\\Zend\\ModuleManager\\Feature\\BootstrapListenerInterface</title>
<path fill="none" stroke="black" stroke-dasharray="1,5" d="M711.21,-72C686.065,-72 646.652,-72 601.906,-72"/>
<polygon fill="none" stroke="black" points="601.667,-68.5001 591.666,-72 601.666,-75.5001 601.667,-68.5001"/>
</g>
<!-- \\Zend\\ModuleManager\\Feature\\ConfigProviderInterface -->
<g id="node17" class="node"><title>\\Zend\\ModuleManager\\Feature\\ConfigProviderInterface</title>
<ellipse fill="none" stroke="black" cx="296" cy="-18" rx="278.808" ry="18.3848"/>
<text text-anchor="middle" x="296" y="-14.4" font-family="Times Roman,serif" font-size="14.00" fill="gray">\Zend\ModuleManager\Feature\ConfigProviderInterface</text>
</g>
<!-- \\WebinoCanonicalRedirect\\Module&#45;&gt;\\Zend\\ModuleManager\\Feature\\ConfigProviderInterface -->
<g id="edge13" class="edge"><title>\\WebinoCanonicalRedirect\\Module&#45;&gt;\\Zend\\ModuleManager\\Feature\\ConfigProviderInterface</title>
<path fill="none" stroke="black" stroke-dasharray="1,5" d="M711.472,-66.0117C681.757,-59.9587 633.794,-50.7067 592,-45 557.914,-40.3457 521.506,-36.2844 486.298,-32.8229"/>
<polygon fill="none" stroke="black" points="486.201,-29.2971 475.91,-31.8153 485.525,-36.2645 486.201,-29.2971"/>
</g>
</g>
</svg>
