<?xml version="1.0" encoding="UTF-8" standalone="no"?>
<!DOCTYPE svg PUBLIC "-//W3C//DTD SVG 1.1//EN"
 "http://www.w3.org/Graphics/SVG/1.1/DTD/svg11.dtd">
<!-- Generated by graphviz version 2.26.3 (20100126.1600)
 -->
<!-- Title: G Pages: 1 -->
<svg width="856pt" height="441pt"
 viewBox="0.00 0.00 856.00 441.00" xmlns="http://www.w3.org/2000/svg" xmlns:xlink="http://www.w3.org/1999/xlink">
<g id="graph1" class="graph" transform="scale(1 1) rotate(0) translate(4 437)">
<title>G</title>
<polygon fill="white" stroke="white" points="-4,5 -4,-437 853,-437 853,5 -4,5"/>
<g id="graph2" class="cluster"><title>cluster_Global</title>
<polyline fill="none" stroke="gray" points="652,-11 828,-11 "/>
<path fill="none" stroke="gray" d="M828,-11C834,-11 840,-17 840,-23"/>
<polyline fill="none" stroke="gray" points="840,-23 840,-413 "/>
<path fill="none" stroke="gray" d="M840,-413C840,-419 834,-425 828,-425"/>
<polyline fill="none" stroke="gray" points="828,-425 652,-425 "/>
<path fill="none" stroke="gray" d="M652,-425C646,-425 640,-419 640,-413"/>
<polyline fill="none" stroke="gray" points="640,-413 640,-23 "/>
<path fill="none" stroke="gray" d="M640,-23C640,-17 646,-11 652,-11"/>
<text text-anchor="middle" x="740" y="-411.1" font-family="Times Roman,serif" font-size="11.00" fill="gray">Global</text>
</g>
<g id="graph3" class="cluster"><title>cluster_\WebinoCanonicalRedirect</title>
<polyline fill="none" stroke="gray" points="660,-19 820,-19 "/>
<path fill="none" stroke="gray" d="M820,-19C826,-19 832,-25 832,-31"/>
<polyline fill="none" stroke="gray" points="832,-31 832,-383 "/>
<path fill="none" stroke="gray" d="M832,-383C832,-389 826,-395 820,-395"/>
<polyline fill="none" stroke="gray" points="820,-395 660,-395 "/>
<path fill="none" stroke="gray" d="M660,-395C654,-395 648,-389 648,-383"/>
<polyline fill="none" stroke="gray" points="648,-383 648,-31 "/>
<path fill="none" stroke="gray" d="M648,-31C648,-25 654,-19 660,-19"/>
<text text-anchor="middle" x="740" y="-381.1" font-family="Times Roman,serif" font-size="11.00" fill="gray">WebinoCanonicalRedirect</text>
</g>
<g id="graph4" class="cluster"><title>cluster_\WebinoCanonicalRedirect\Uri</title>
<polyline fill="none" stroke="gray" points="692,-291 788,-291 "/>
<path fill="none" stroke="gray" d="M788,-291C794,-291 800,-297 800,-303"/>
<polyline fill="none" stroke="gray" points="800,-303 800,-353 "/>
<path fill="none" stroke="gray" d="M800,-353C800,-359 794,-365 788,-365"/>
<polyline fill="none" stroke="gray" points="788,-365 692,-365 "/>
<path fill="none" stroke="gray" d="M692,-365C686,-365 680,-359 680,-353"/>
<polyline fill="none" stroke="gray" points="680,-353 680,-303 "/>
<path fill="none" stroke="gray" d="M680,-303C680,-297 686,-291 692,-291"/>
<text text-anchor="middle" x="740" y="-351.1" font-family="Times Roman,serif" font-size="11.00" fill="gray">Uri</text>
</g>
<g id="graph5" class="cluster"><title>cluster_\WebinoCanonicalRedirect\Options</title>
<polyline fill="none" stroke="gray" points="692,-209 788,-209 "/>
<path fill="none" stroke="gray" d="M788,-209C794,-209 800,-215 800,-221"/>
<polyline fill="none" stroke="gray" points="800,-221 800,-271 "/>
<path fill="none" stroke="gray" d="M800,-271C800,-277 794,-283 788,-283"/>
<polyline fill="none" stroke="gray" points="788,-283 692,-283 "/>
<path fill="none" stroke="gray" d="M692,-283C686,-283 680,-277 680,-271"/>
<polyline fill="none" stroke="gray" points="680,-271 680,-221 "/>
<path fill="none" stroke="gray" d="M680,-221C680,-215 686,-209 692,-209"/>
<text text-anchor="middle" x="740" y="-269.1" font-family="Times Roman,serif" font-size="11.00" fill="gray">Options</text>
</g>
<g id="graph6" class="cluster"><title>cluster_\WebinoCanonicalRedirect\Factory</title>
<polyline fill="none" stroke="gray" points="668,-73 812,-73 "/>
<path fill="none" stroke="gray" d="M812,-73C818,-73 824,-79 824,-85"/>
<polyline fill="none" stroke="gray" points="824,-85 824,-189 "/>
<path fill="none" stroke="gray" d="M824,-189C824,-195 818,-201 812,-201"/>
<polyline fill="none" stroke="gray" points="812,-201 668,-201 "/>
<path fill="none" stroke="gray" d="M668,-201C662,-201 656,-195 656,-189"/>
<polyline fill="none" stroke="gray" points="656,-189 656,-85 "/>
<path fill="none" stroke="gray" d="M656,-85C656,-79 662,-73 668,-73"/>
<text text-anchor="middle" x="740" y="-187.1" font-family="Times Roman,serif" font-size="11.00" fill="gray">Factory</text>
</g>
<!-- \\WebinoCanonicalRedirect\\Uri\\Canonicalizer -->
<g id="node4" class="node"><title>\\WebinoCanonicalRedirect\\Uri\\Canonicalizer</title>
<polygon fill="none" stroke="black" points="792,-335 688,-335 688,-299 792,-299 792,-335"/>
<text text-anchor="middle" x="740" y="-314.1" font-family="Courier,monospace" font-size="11.00">Canonicalizer</text>
</g>
<!-- \\WebinoCanonicalRedirect\\Options\\ModuleOptions -->
<g id="node6" class="node"><title>\\WebinoCanonicalRedirect\\Options\\ModuleOptions</title>
<polygon fill="none" stroke="black" points="792,-253 688,-253 688,-217 792,-217 792,-253"/>
<text text-anchor="middle" x="740" y="-232.1" font-family="Courier,monospace" font-size="11.00">ModuleOptions</text>
</g>
<!-- \\Zend\\Stdlib\\AbstractOptions -->
<g id="node12" class="node"><title>\\Zend\\Stdlib\\AbstractOptions</title>
<ellipse fill="none" stroke="black" cx="296" cy="-235" rx="152.028" ry="18.3848"/>
<text text-anchor="middle" x="296" y="-231.4" font-family="Times Roman,serif" font-size="14.00" fill="gray">\Zend\Stdlib\AbstractOptions</text>
</g>
<!-- \\WebinoCanonicalRedirect\\Options\\ModuleOptions&#45;&gt;\\Zend\\Stdlib\\AbstractOptions -->
<g id="edge7" class="edge"><title>\\WebinoCanonicalRedirect\\Options\\ModuleOptions&#45;&gt;\\Zend\\Stdlib\\AbstractOptions</title>
<path fill="none" stroke="black" d="M687.762,-235C631.595,-235 539.466,-235 458.659,-235"/>
<polygon fill="none" stroke="black" points="458.356,-231.5 448.356,-235 458.356,-238.5 458.356,-231.5"/>
</g>
<!-- \\WebinoCanonicalRedirect\\Factory\\CanonicalizerFactory -->
<g id="node8" class="node"><title>\\WebinoCanonicalRedirect\\Factory\\CanonicalizerFactory</title>
<polygon fill="none" stroke="black" points="816,-171 664,-171 664,-135 816,-135 816,-171"/>
<text text-anchor="middle" x="740" y="-150.1" font-family="Courier,monospace" font-size="11.00">CanonicalizerFactory</text>
</g>
<!-- \\Zend\\ServiceManager\\FactoryInterface -->
<g id="node18" class="node"><title>\\Zend\\ServiceManager\\FactoryInterface</title>
<ellipse fill="none" stroke="black" cx="296" cy="-140" rx="202.94" ry="18.3848"/>
<text text-anchor="middle" x="296" y="-136.4" font-family="Times Roman,serif" font-size="14.00" fill="gray">\Zend\ServiceManager\FactoryInterface</text>
</g>
<!-- \\WebinoCanonicalRedirect\\Factory\\CanonicalizerFactory&#45;&gt;\\Zend\\ServiceManager\\FactoryInterface -->
<g id="edge13" class="edge"><title>\\WebinoCanonicalRedirect\\Factory\\CanonicalizerFactory&#45;&gt;\\Zend\\ServiceManager\\FactoryInterface</title>
<path fill="none" stroke="black" stroke-dasharray="1,5" d="M663.926,-150.773C618.246,-149.435 557.766,-147.664 499.066,-145.946"/>
<polygon fill="none" stroke="black" points="498.997,-142.442 488.899,-145.648 498.792,-149.439 498.997,-142.442"/>
</g>
<!-- \\WebinoCanonicalRedirect\\Factory\\ModuleOptionsFactory -->
<g id="node9" class="node"><title>\\WebinoCanonicalRedirect\\Factory\\ModuleOptionsFactory</title>
<polygon fill="none" stroke="black" points="816,-117 664,-117 664,-81 816,-81 816,-117"/>
<text text-anchor="middle" x="740" y="-96.1" font-family="Courier,monospace" font-size="11.00">ModuleOptionsFactory</text>
</g>
<!-- \\WebinoCanonicalRedirect\\Factory\\ModuleOptionsFactory&#45;&gt;\\Zend\\ServiceManager\\FactoryInterface -->
<g id="edge15" class="edge"><title>\\WebinoCanonicalRedirect\\Factory\\ModuleOptionsFactory&#45;&gt;\\Zend\\ServiceManager\\FactoryInterface</title>
<path fill="none" stroke="black" stroke-dasharray="1,5" d="M663.926,-106.025C604.52,-111.511 520.085,-119.307 447.083,-126.049"/>
<polygon fill="none" stroke="black" points="446.497,-122.588 436.861,-126.993 447.141,-129.558 446.497,-122.588"/>
</g>
<!-- \\WebinoCanonicalRedirect\\Module -->
<g id="node10" class="node"><title>\\WebinoCanonicalRedirect\\Module</title>
<polygon fill="none" stroke="black" points="768,-63 712,-63 712,-27 768,-27 768,-63"/>
<text text-anchor="middle" x="740" y="-42.1" font-family="Courier,monospace" font-size="11.00">Module</text>
</g>
<!-- \\Zend\\ModuleManager\\Feature\\BootstrapListenerInterface -->
<g id="node14" class="node"><title>\\Zend\\ModuleManager\\Feature\\BootstrapListenerInterface</title>
<ellipse fill="none" stroke="black" cx="296" cy="-72" rx="295.071" ry="18.3848"/>
<text text-anchor="middle" x="296" y="-68.4" font-family="Times Roman,serif" font-size="14.00" fill="gray">\Zend\ModuleManager\Feature\BootstrapListenerInterface</text>
</g>
<!-- \\WebinoCanonicalRedirect\\Module&#45;&gt;\\Zend\\ModuleManager\\Feature\\BootstrapListenerInterface -->
<g id="edge9" class="edge"><title>\\WebinoCanonicalRedirect\\Module&#45;&gt;\\Zend\\ModuleManager\\Feature\\BootstrapListenerInterface</title>
<path fill="none" stroke="black" stroke-dasharray="1,5" d="M711.21,-46.7507C670.659,-49.2167 593.001,-53.9392 515.712,-58.6391"/>
<polygon fill="none" stroke="black" points="515.077,-55.1712 505.308,-59.2718 515.502,-62.1583 515.077,-55.1712"/>
</g>
<!-- \\Zend\\ModuleManager\\Feature\\ConfigProviderInterface -->
<g id="node16" class="node"><title>\\Zend\\ModuleManager\\Feature\\ConfigProviderInterface</title>
<ellipse fill="none" stroke="black" cx="296" cy="-18" rx="278.808" ry="18.3848"/>
<text text-anchor="middle" x="296" y="-14.4" font-family="Times Roman,serif" font-size="14.00" fill="gray">\Zend\ModuleManager\Feature\ConfigProviderInterface</text>
</g>
<!-- \\WebinoCanonicalRedirect\\Module&#45;&gt;\\Zend\\ModuleManager\\Feature\\ConfigProviderInterface -->
<g id="edge11" class="edge"><title>\\WebinoCanonicalRedirect\\Module&#45;&gt;\\Zend\\ModuleManager\\Feature\\ConfigProviderInterface</title>
<path fill="none" stroke="black" stroke-dasharray="1,5" d="M711.21,-43.2493C669.562,-40.7166 588.774,-35.8039 509.445,-30.9798"/>
<polygon fill="none" stroke="black" points="509.472,-27.475 499.278,-30.3615 509.047,-34.4621 509.472,-27.475"/>
</g>
</g>
</svg>
